<svg width="24" height="24" viewBox="0 0 24 24" fill="none" xmlns="http://www.w3.org/2000/svg">
<g clip-path="url(#clip0_263_185)">
<path fill-rule="evenodd" clip-rule="evenodd" d="M6.42965 0.162083C6.4809 0.110705 6.54178 0.0699423 6.60881 0.0421294C6.67583 0.0143165 6.74769 0 6.82026 0C6.89282 0 6.96468 0.0143165 7.03171 0.0421294C7.09873 0.0699423 7.15961 0.110705 7.21086 0.162083L8.43012 1.38245C9.3751 0.836071 10.448 0.549774 11.5395 0.552688H12.3185C13.4109 0.549719 14.4846 0.836412 15.4301 1.38355L16.6516 0.162083C16.7552 0.0586347 16.8956 0.000576051 17.042 0.000679515C17.1884 0.000782979 17.3288 0.05904 17.4322 0.162635C17.5357 0.26623 17.5937 0.406676 17.5936 0.553078C17.5935 0.69948 17.5353 0.839845 17.4317 0.943293L16.3459 2.02904C17.037 2.61376 17.5922 3.34222 17.9728 4.16358C18.3533 4.98495 18.5501 5.87946 18.5494 6.78471C18.5491 6.88782 18.508 6.98661 18.435 7.05942C18.362 7.13223 18.263 7.17311 18.1599 7.17311H5.6981C5.59479 7.17311 5.49572 7.13207 5.42268 7.05903C5.34963 6.98598 5.30859 6.88691 5.30859 6.78361C5.30859 4.87693 6.16484 3.16996 7.5154 2.02794L6.42965 0.943293C6.37827 0.892045 6.33751 0.831164 6.3097 0.764138C6.28189 0.697111 6.26757 0.625256 6.26757 0.552688C6.26757 0.48012 6.28189 0.408265 6.3097 0.341239C6.33751 0.274213 6.37827 0.213332 6.42965 0.162083ZM10.2739 4.13875C10.2739 4.35823 10.1867 4.56872 10.0315 4.72392C9.87633 4.87912 9.66584 4.9663 9.44636 4.9663C9.22688 4.9663 9.01639 4.87912 8.86119 4.72392C8.70599 4.56872 8.61881 4.35823 8.61881 4.13875C8.61881 3.91927 8.70599 3.70878 8.86119 3.55358C9.01639 3.39839 9.22688 3.3112 9.44636 3.3112C9.66584 3.3112 9.87633 3.39839 10.0315 3.55358C10.1867 3.70878 10.2739 3.91927 10.2739 4.13875ZM14.383 4.9663C14.6025 4.9663 14.813 4.87912 14.9682 4.72392C15.1234 4.56872 15.2105 4.35823 15.2105 4.13875C15.2105 3.91927 15.1234 3.70878 14.9682 3.55358C14.813 3.39839 14.6025 3.3112 14.383 3.3112C14.1635 3.3112 13.953 3.39839 13.7978 3.55358C13.6426 3.70878 13.5554 3.91927 13.5554 4.13875C13.5554 4.35823 13.6426 4.56872 13.7978 4.72392C13.953 4.87912 14.1635 4.9663 14.383 4.9663Z" fill="white"/>
<path d="M3.1034 8.21802C2.81076 8.21802 2.53011 8.33427 2.32318 8.5412C2.11625 8.74813 2 9.02878 2 9.32142V15.9418C2 16.2345 2.11625 16.5151 2.32318 16.7221C2.53011 16.929 2.81076 17.0452 3.1034 17.0452C3.39604 17.0452 3.6767 16.929 3.88363 16.7221C4.09056 16.5151 4.20681 16.2345 4.20681 15.9418V9.32142C4.20681 9.02878 4.09056 8.74813 3.88363 8.5412C3.6767 8.33427 3.39604 8.21802 3.1034 8.21802ZM6.41362 8.21802C6.12097 8.21802 5.84032 8.33427 5.63339 8.5412C5.42646 8.74813 5.31021 9.02878 5.31021 9.32142V19.2521C5.31021 19.5447 5.42646 19.8254 5.63339 20.0323C5.84032 20.2392 6.12097 20.3555 6.41362 20.3555H17.4477C17.7403 20.3555 18.021 20.2392 18.2279 20.0323C18.4348 19.8254 18.5511 19.5447 18.5511 19.2521V9.32142C18.5511 9.02878 18.4348 8.74813 18.2279 8.5412C18.021 8.33427 17.7403 8.21802 17.4477 8.21802H6.41362ZM19.8862 9.32142C19.8862 9.02878 20.0024 8.74813 20.2094 8.5412C20.4163 8.33427 20.6969 8.21802 20.9896 8.21802C21.2822 8.21802 21.5629 8.33427 21.7698 8.5412C21.9767 8.74813 22.093 9.02878 22.093 9.32142V15.9418C22.093 16.2345 21.9767 16.5151 21.7698 16.7221C21.5629 16.929 21.2822 17.0452 20.9896 17.0452C20.6969 17.0452 20.4163 16.929 20.2094 16.7221C20.0024 16.5151 19.8862 16.2345 19.8862 15.9418V9.32142ZM7.28861 21.5173C7.24607 21.5173 7.20393 21.5257 7.16464 21.5421C7.12534 21.5584 7.08965 21.5823 7.05962 21.6124C7.02958 21.6426 7.00579 21.6783 6.98961 21.7177C6.97343 21.757 6.96517 21.7992 6.96532 21.8417V22.069C6.96532 22.5812 7.16876 23.0723 7.53088 23.4344C7.89301 23.7966 8.38415 24 8.89627 24C9.4084 24 9.89954 23.7966 10.2617 23.4344C10.6238 23.0723 10.8272 22.5812 10.8272 22.069V21.8417C10.8274 21.7992 10.8191 21.757 10.8029 21.7177C10.7868 21.6783 10.763 21.6426 10.7329 21.6124C10.7029 21.5823 10.6672 21.5584 10.6279 21.5421C10.5886 21.5257 10.5465 21.5173 10.5039 21.5173H7.28861ZM13.034 21.8417C13.034 21.6619 13.1786 21.5173 13.3573 21.5173H16.5715C16.7514 21.5173 16.896 21.6619 16.896 21.8417V22.069C16.896 22.5812 16.6925 23.0723 16.3304 23.4344C15.9683 23.7966 15.4771 24 14.965 24C14.4529 24 13.9617 23.7966 13.5996 23.4344C13.2375 23.0723 13.034 22.5812 13.034 22.069V21.8417Z" fill="white"/>
</g>
<defs>
<clipPath id="clip0_263_185">
<rect width="24" height="24" fill="white"/>
</clipPath>
</defs>
</svg>
