<svg width="24" height="24" viewBox="0 0 24 24" fill="none" xmlns="http://www.w3.org/2000/svg">
<g clip-path="url(#clip0_262_74)">
<path d="M12 0C5.38327 0 0 5.38327 0 12C0 18.6167 5.38327 24 12 24C18.6167 24 24 18.6167 24 12C24 5.38327 18.6167 0 12 0ZM20.25 17.5385H17.6412C17.5603 17.5383 17.4809 17.5169 17.411 17.4764C17.341 17.4359 17.2829 17.3777 17.2425 17.3077L16.3113 15.7108C16.25 15.6064 16.2322 15.482 16.2617 15.3646L17.119 11.9077C17.1362 11.838 17.1694 11.7734 17.216 11.7188C17.2626 11.6642 17.3212 11.6212 17.3873 11.5933L19.0085 10.9067C19.0877 10.8731 19.1747 10.8624 19.2597 10.8756C19.3448 10.8889 19.4244 10.9256 19.4896 10.9817L21.8913 13.0483C21.9505 13.0992 21.9958 13.1644 22.023 13.2377C22.0501 13.3109 22.0582 13.3899 22.0465 13.4671C21.8476 14.8317 21.3709 16.141 20.6458 17.314C20.6048 17.3824 20.5468 17.4391 20.4775 17.4784C20.4081 17.5177 20.3297 17.5384 20.25 17.5385ZM4.99154 10.9113L6.61269 11.5979C6.67877 11.6258 6.73742 11.6688 6.78399 11.7234C6.83056 11.778 6.86376 11.8427 6.88096 11.9123L7.73827 15.3692C7.76777 15.4867 7.74996 15.611 7.68865 15.7154L6.7575 17.3077C6.71708 17.3777 6.65898 17.4359 6.58902 17.4764C6.51906 17.5169 6.43969 17.5383 6.35885 17.5385H3.75C3.6711 17.5385 3.5935 17.5183 3.52461 17.4799C3.45573 17.4414 3.39786 17.3859 3.35654 17.3187C2.63143 16.1456 2.15468 14.8363 1.95577 13.4717C1.94407 13.3945 1.95218 13.3155 1.97932 13.2423C2.00646 13.169 2.05176 13.1039 2.11096 13.0529L4.51269 10.9863C4.5777 10.9307 4.65692 10.8942 4.74148 10.8809C4.82604 10.8677 4.91262 10.8782 4.99154 10.9113ZM19.815 5.87827L18.7725 8.8425C18.7515 8.90308 18.7182 8.95863 18.6746 9.00561C18.631 9.0526 18.5781 9.08998 18.5192 9.11538L16.8127 9.83827C16.7344 9.8714 16.6484 9.88225 16.5643 9.86963C16.4803 9.857 16.4013 9.8214 16.3362 9.76673L13.0904 7.04423C13.0385 7.00132 12.9967 6.94759 12.9678 6.88679C12.9389 6.826 12.9236 6.75962 12.9231 6.69231V4.755C12.9231 4.67909 12.9419 4.60437 12.9777 4.53745C13.0135 4.47053 13.0653 4.41347 13.1285 4.37135L15.5994 2.72481C15.6639 2.68177 15.7382 2.65566 15.8154 2.64891C15.8927 2.64215 15.9704 2.65496 16.0413 2.68615C17.4632 3.30623 18.7249 4.24225 19.7308 5.42308C19.7837 5.48481 19.8193 5.55942 19.8341 5.63935C19.8489 5.71928 19.8423 5.8017 19.815 5.87827ZM8.4 2.72481L10.8715 4.37135C10.9347 4.41347 10.9865 4.47053 11.0223 4.53745C11.0581 4.60437 11.0769 4.67909 11.0769 4.755V6.69231C11.0769 6.75973 11.0621 6.82633 11.0336 6.88743C11.0051 6.94853 10.9636 7.00264 10.9119 7.04596L7.66615 9.76846C7.60102 9.82313 7.52205 9.85874 7.43796 9.87136C7.35387 9.88398 7.26793 9.87313 7.18962 9.84L5.48077 9.11538C5.42155 9.09031 5.36822 9.05313 5.32421 9.00624C5.2802 8.95934 5.24647 8.90377 5.22519 8.84308L4.18269 5.87885C4.1556 5.802 4.14934 5.71935 4.16454 5.6393C4.17974 5.55925 4.21586 5.48465 4.26923 5.42308C5.27565 4.24106 6.53845 3.30422 7.96154 2.68385C8.03225 2.6536 8.1094 2.64151 8.18597 2.64866C8.26254 2.65582 8.33612 2.68199 8.4 2.72481ZM9.39865 21.6167L8.26038 18.75C8.23436 18.6848 8.22353 18.6146 8.22873 18.5446C8.23393 18.4746 8.25501 18.4068 8.29038 18.3462L9.16558 16.8462C9.206 16.7761 9.26409 16.718 9.33406 16.6775C9.40402 16.637 9.48339 16.6156 9.56423 16.6154H14.4358C14.5166 16.6156 14.596 16.637 14.6659 16.6775C14.7359 16.718 14.794 16.7761 14.8344 16.8462L15.7102 18.3462C15.7457 18.4067 15.7668 18.4746 15.7721 18.5445C15.7774 18.6145 15.7667 18.6848 15.7408 18.75L14.6106 21.6156C14.5829 21.6856 14.5386 21.7479 14.4814 21.7968C14.4241 21.8458 14.3558 21.88 14.2823 21.8965C12.7826 22.2407 11.2244 22.2407 9.72462 21.8965C9.65167 21.8798 9.58388 21.8456 9.5271 21.7969C9.47031 21.7481 9.42623 21.6863 9.39865 21.6167Z" fill="white"/>
</g>
<defs>
<clipPath id="clip0_262_74">
<rect width="24" height="24" fill="white"/>
</clipPath>
</defs>
</svg>
