<svg width="24" height="24" viewBox="0 0 24 24" fill="none" xmlns="http://www.w3.org/2000/svg">
<path d="M19.8074 18.2379C19.9752 18.1759 20.1204 18.0621 20.223 17.9121C20.3257 17.7622 20.3808 17.5833 20.3809 17.4V16.5C20.3809 16.2613 20.2886 16.0324 20.1243 15.8637L18.6296 14.3274V10.2C18.6296 7.3047 16.7163 4.8657 14.1243 4.1322C13.8678 3.468 13.2408 3 12.5 3C11.7592 3 11.1322 3.468 10.8757 4.1322C9.71716 4.4598 8.71891 5.1474 7.94571 6.0465L5.23818 3.2637L4 4.5363L19.7618 20.7363L21 19.4637L19.8074 18.2379ZM12.5 21C13.0423 21.0007 13.5713 20.8277 14.0136 20.5051C14.4558 20.1826 14.7893 19.7264 14.9676 19.2H10.0324C10.2107 19.7264 10.5442 20.1826 10.9864 20.5051C11.4287 20.8277 11.9577 21.0007 12.5 21ZM6.3704 10.2V14.3274L4.87566 15.8637C4.71143 16.0324 4.61914 16.2613 4.61909 16.5V17.4C4.61909 17.6387 4.71135 17.8676 4.87556 18.0364C5.03978 18.2052 5.26251 18.3 5.49475 18.3H15.021L6.42995 9.4701C6.4028 9.7113 6.3704 9.9516 6.3704 10.2Z" fill="white"/>
</svg>
