<svg width="24" height="24" viewBox="0 0 24 24" fill="none" xmlns="http://www.w3.org/2000/svg">
<path d="M5.36766 18.1197C5.15466 18.0967 4.72266 17.9007 4.72266 17.2897C4.72266 16.6737 5.22966 16.4037 5.48266 16.3917C6.72766 16.3917 6.99766 15.4707 7.02666 14.9577V10.4297C7.02666 7.49168 9.53866 6.12068 10.7477 5.80368C10.7477 4.66968 11.6577 4.32968 12.1757 4.29468H12.2457C12.7637 4.32968 13.6737 4.66968 13.6737 5.80468C14.8837 6.12068 17.3947 7.49168 17.3947 10.4297V14.9567C17.4237 15.4747 17.6947 16.3907 18.9387 16.3907C19.1917 16.4027 19.6987 16.6787 19.6987 17.2897C19.6987 17.8997 19.2667 18.0957 19.0537 18.1187L5.36766 18.1197ZM12.2117 20.9997C10.7777 20.9997 9.61966 19.9627 9.61966 18.6957H14.8037C14.8037 19.9627 13.6457 20.9997 12.2117 20.9997Z" fill="white"/>
<path d="M5.36766 18.1197H19.0537C19.2667 18.0967 19.6987 17.9007 19.6987 17.2897C19.6987 16.6737 19.1917 16.4037 18.9387 16.3917C17.6937 16.3917 17.4237 15.4707 17.3947 14.9577V10.4297C17.3947 7.49168 14.8837 6.12068 13.6747 5.80368C13.6747 4.66968 12.7647 4.32968 12.2447 4.29468H12.1757C11.6577 4.32968 10.7477 4.66968 10.7477 5.80468C9.53766 6.12068 7.02766 7.49168 7.02766 10.4297V14.9567C6.99149 15.3858 6.79193 15.7846 6.47017 16.0708C6.14842 16.357 5.72905 16.5088 5.29866 16.4947C5.04566 16.5057 4.72266 16.6727 4.72266 17.2897C4.72266 17.8997 5.15466 18.0957 5.36766 18.1187M8.28166 4.58368C8.2878 4.60211 8.29016 4.6216 8.28857 4.64097C8.28699 4.66034 8.2815 4.67919 8.27243 4.69638C8.26337 4.71358 8.25092 4.72876 8.23584 4.74101C8.22075 4.75326 8.20334 4.76233 8.18466 4.76768C5.82166 5.47668 5.43166 7.47468 5.52966 8.38468C5.53278 8.40414 5.5319 8.42404 5.52707 8.44316C5.52224 8.46227 5.51356 8.4802 5.50156 8.49585C5.48957 8.5115 5.47451 8.52453 5.45731 8.53416C5.4401 8.54379 5.42112 8.54981 5.40151 8.55185C5.3819 8.5539 5.36208 8.55192 5.34326 8.54604C5.32444 8.54016 5.30702 8.53051 5.29206 8.51767C5.27709 8.50483 5.26491 8.48908 5.25624 8.47137C5.24758 8.45366 5.24261 8.43437 5.24166 8.41468C5.17795 7.52797 5.43048 6.64738 5.95443 5.9292C6.47837 5.21102 7.23983 4.70171 8.10366 4.49168C8.12183 4.48574 8.14103 4.48359 8.16007 4.48536C8.17911 4.48713 8.19758 4.49278 8.21435 4.50196C8.23113 4.51114 8.24584 4.52366 8.25759 4.53875C8.26933 4.55383 8.27786 4.57117 8.28266 4.58968L8.28166 4.58368Z" fill="white"/>
<path d="M8.14952 3.10365C8.15856 3.13955 8.15342 3.17756 8.13517 3.20978C8.11692 3.24199 8.08697 3.26594 8.05152 3.27665C4.71652 4.28465 4.16952 7.10665 4.30752 8.38565C4.31075 8.40524 4.30993 8.42528 4.30509 8.44454C4.30026 8.4638 4.29153 8.48185 4.27943 8.4976C4.26733 8.51334 4.25213 8.52643 4.23477 8.53606C4.2174 8.54569 4.19825 8.55164 4.17849 8.55357C4.15873 8.55549 4.13878 8.55333 4.11989 8.54723C4.10099 8.54112 4.08356 8.53121 4.06865 8.51809C4.05375 8.50497 4.0417 8.48893 4.03325 8.47097C4.0248 8.453 4.02013 8.43349 4.01952 8.41365C3.87552 7.04965 4.46352 4.05965 7.97052 3.00565C8.00725 2.99537 8.04654 2.99987 8.07999 3.01818C8.11344 3.0365 8.1384 3.06717 8.14952 3.10365ZM16.1385 4.58465C16.1324 4.60315 16.1301 4.6227 16.1317 4.64213C16.1334 4.66155 16.139 4.68043 16.1481 4.69764C16.1573 4.71484 16.1698 4.73 16.185 4.74221C16.2002 4.75442 16.2177 4.76341 16.2365 4.76865C18.5985 5.47765 18.9895 7.47565 18.8925 8.38565C18.8906 8.40456 18.8923 8.42367 18.8977 8.4419C18.9032 8.46012 18.9121 8.4771 18.9241 8.49186C18.9361 8.50663 18.9508 8.51889 18.9676 8.52795C18.9843 8.537 19.0026 8.54268 19.0215 8.54465C19.0404 8.54662 19.0595 8.54484 19.0778 8.53943C19.096 8.53401 19.113 8.52506 19.1277 8.51308C19.1425 8.5011 19.1548 8.48633 19.1638 8.46961C19.1729 8.4529 19.1786 8.43456 19.1805 8.41565C19.2442 7.52881 18.9915 6.6481 18.4674 5.9299C17.9432 5.2117 17.1815 4.70248 16.3175 4.49265C16.2994 4.48713 16.2804 4.48527 16.2615 4.48717C16.2427 4.48907 16.2244 4.4947 16.2077 4.50372C16.1911 4.51275 16.1764 4.52499 16.1645 4.53974C16.1526 4.55449 16.1438 4.57145 16.1385 4.58965V4.58465Z" fill="white"/>
<path d="M16.2724 3.10387C16.2665 3.12159 16.2644 3.14035 16.2663 3.15894C16.2681 3.17752 16.2738 3.19551 16.2831 3.21174C16.2923 3.22796 16.3049 3.24206 16.3199 3.25311C16.335 3.26416 16.3522 3.27191 16.3704 3.27587C19.7054 4.28387 20.2524 7.10587 20.1144 8.38587C20.112 8.40955 20.1156 8.43344 20.1247 8.45543C20.1338 8.47742 20.1482 8.49681 20.1666 8.51186C20.185 8.52692 20.2069 8.53718 20.2302 8.54171C20.2536 8.54625 20.2777 8.54493 20.3004 8.53787C20.3274 8.52899 20.3514 8.51262 20.3694 8.49067C20.3875 8.46872 20.3989 8.44208 20.4024 8.41387C20.5464 7.04887 19.9584 4.05987 16.4514 3.00587C16.4332 3.00051 16.4142 2.9988 16.3953 3.00083C16.3765 3.00285 16.3582 3.00859 16.3416 3.01769C16.3249 3.0268 16.3103 3.0391 16.2984 3.05389C16.2865 3.06868 16.2777 3.08566 16.2724 3.10387Z" fill="white"/>
</svg>
