<svg width="24" height="24" viewBox="0 0 24 24" fill="none" xmlns="http://www.w3.org/2000/svg">
<path fill-rule="evenodd" clip-rule="evenodd" d="M2.24222 3.21333C2 3.68889 2 4.31111 2 5.55556V6.23778L21.9889 4.42C21.9678 3.87778 21.9111 3.51556 21.7578 3.21333C21.5447 2.79521 21.2048 2.45527 20.7867 2.24222C20.3111 2 19.6889 2 18.4444 2H5.55556C4.31111 2 3.68889 2 3.21333 2.24222C2.79521 2.45527 2.45527 2.79521 2.24222 3.21333ZM22 6.65111L16.5944 7.14222L19.3789 21.9944C20.0367 21.98 20.4489 21.93 20.7867 21.7578C21.2048 21.5447 21.5447 21.2048 21.7578 20.7867C22 20.3111 22 19.6889 22 18.4444V6.65111ZM17.12 22L14.3711 7.34444L2 8.46889V18.4444C2 19.6889 2 20.3111 2.24222 20.7867C2.45527 21.2048 2.79521 21.5447 3.21333 21.7578C3.68889 22 4.31111 22 5.55556 22H17.12ZM12.5556 15.3667C12.5556 17.7644 10.1778 19.4489 9.14111 20.07C8.99779 20.156 8.8338 20.2014 8.66667 20.2014C8.49953 20.2014 8.33554 20.156 8.19222 20.07C7.15556 19.4489 4.77778 17.7644 4.77778 15.3656C4.77778 13.0133 6.66222 11.4444 8.66667 11.4444C10.7411 11.4444 12.5556 13.0133 12.5556 15.3667Z" fill="white"/>
<path d="M8.6658 16.4444C9.27945 16.4444 9.77691 15.9469 9.77691 15.3333C9.77691 14.7196 9.27945 14.2222 8.6658 14.2222C8.05215 14.2222 7.55469 14.7196 7.55469 15.3333C7.55469 15.9469 8.05215 16.4444 8.6658 16.4444Z" fill="white"/>
</svg>
