<svg width="24" height="24" viewBox="0 0 24 24" fill="none" xmlns="http://www.w3.org/2000/svg">
<path d="M7.47059 1C6.81535 1 6.18694 1.26744 5.72362 1.7435C5.26029 2.21955 5 2.86522 5 3.53846V20.4615C5 21.1348 5.26029 21.7804 5.72362 22.2565C6.18694 22.7326 6.81535 23 7.47059 23H16.5294C17.1847 23 17.8131 22.7326 18.2764 22.2565C18.7397 21.7804 19 21.1348 19 20.4615V3.53846C19 2.86522 18.7397 2.21955 18.2764 1.7435C17.8131 1.26744 17.1847 1 16.5294 1L7.47059 1ZM11.1765 1.84615H12.8235C12.9327 1.84615 13.0375 1.89073 13.1147 1.97007C13.1919 2.04941 13.2353 2.15702 13.2353 2.26923C13.2353 2.38144 13.1919 2.48905 13.1147 2.56839C13.0375 2.64773 12.9327 2.69231 12.8235 2.69231H11.1765C11.0673 2.69231 10.9625 2.64773 10.8853 2.56839C10.8081 2.48905 10.7647 2.38144 10.7647 2.26923C10.7647 2.15702 10.8081 2.04941 10.8853 1.97007C10.9625 1.89073 11.0673 1.84615 11.1765 1.84615ZM7.05882 3.53846H16.9412C17.0504 3.53846 17.1551 3.58304 17.2323 3.66238C17.3096 3.74172 17.3529 3.84933 17.3529 3.96154V18.3462C17.3529 18.4584 17.3096 18.566 17.2323 18.6453C17.1551 18.7247 17.0504 18.7692 16.9412 18.7692H7.05882C6.94962 18.7692 6.84488 18.7247 6.76766 18.6453C6.69044 18.566 6.64706 18.4584 6.64706 18.3462V3.96154C6.64706 3.84933 6.69044 3.74172 6.76766 3.66238C6.84488 3.58304 6.94962 3.53846 7.05882 3.53846ZM13.1842 7.76923C12.8441 7.79208 12.4636 8.00785 12.2314 8.29808C12.0206 8.56038 11.8287 8.94877 11.8971 9.32954C12.2685 9.33969 12.6531 9.12138 12.8754 8.82692C13.0829 8.55277 13.2419 8.16523 13.1842 7.76923ZM10.8932 9.27623C10.4073 9.27623 9.88271 9.60285 9.55494 10.1224C9.09212 10.8518 9.16788 12.2031 9.91565 13.375C10.1841 13.793 10.5547 14.2694 11.0225 14.2745C11.4367 14.2787 11.5388 14.013 12.1029 14.0096C12.6671 14.0062 12.7675 14.2787 13.1842 14.2745C13.6504 14.2694 14.0489 13.7668 14.3158 13.3488C14.4772 13.0982 14.6151 12.8325 14.7275 12.5551C13.6446 12.1345 13.4511 10.5395 14.5216 9.93708C14.1955 9.51908 13.7451 9.27708 13.3127 9.27708C12.7404 9.27708 12.5007 9.56731 12.1029 9.56731C11.6928 9.56731 11.3889 9.27623 10.8932 9.27623ZM12 19.8015C12.5814 19.8015 13.0549 20.2881 13.0549 20.8855C13.0549 21.4828 12.5814 21.9694 12 21.9694C11.7203 21.9689 11.4523 21.8546 11.2545 21.6514C11.0568 21.4482 10.9455 21.1728 10.9451 20.8855C10.9451 20.2881 11.4186 19.8015 12 19.8015Z" fill="white"/>
</svg>
