<svg width="24" height="24" viewBox="0 0 24 24" fill="none" xmlns="http://www.w3.org/2000/svg">
<path d="M6 0C4.892 0 4 0.892 4 2V22C4 23.108 4.892 24 6 24H18C19.108 24 20 23.108 20 22V2C20 0.892 19.108 0 18 0H6ZM7 2H17C17.554 2 18 2.446 18 3V17C18 17.554 17.554 18 17 18H7C6.73478 18 6.48043 17.8946 6.29289 17.7071C6.10536 17.5196 6 17.2652 6 17V3C6 2.446 6.446 2 7 2ZM11 20H13C13.2652 20 13.5196 20.1054 13.7071 20.2929C13.8946 20.4804 14 20.7348 14 21C14 21.2652 13.8946 21.5196 13.7071 21.7071C13.5196 21.8946 13.2652 22 13 22H11C10.7348 22 10.4804 21.8946 10.2929 21.7071C10.1054 21.5196 10 21.2652 10 21C10 20.7348 10.1054 20.4804 10.2929 20.2929C10.4804 20.1054 10.7348 20 11 20Z" fill="white"/>
</svg>
