<svg width="24" height="24" viewBox="0 0 24 24" fill="none" xmlns="http://www.w3.org/2000/svg">
<path d="M12.5 0C7.80071 0 4 3.756 4 8.4C4 14.7 12.5 24 12.5 24C12.5 24 21 14.7 21 8.4C21 3.756 17.1993 0 12.5 0ZM12.5 11.4C11.6949 11.4 10.9227 11.0839 10.3534 10.5213C9.78412 9.95871 9.46429 9.19565 9.46429 8.4C9.46429 7.60435 9.78412 6.84129 10.3534 6.27868C10.9227 5.71607 11.6949 5.4 12.5 5.4C13.3051 5.4 14.0773 5.71607 14.6466 6.27868C15.2159 6.84129 15.5357 7.60435 15.5357 8.4C15.5357 9.19565 15.2159 9.95871 14.6466 10.5213C14.0773 11.0839 13.3051 11.4 12.5 11.4Z" fill="white"/>
</svg>
