<svg width="24" height="24" viewBox="0 0 24 24" fill="none" xmlns="http://www.w3.org/2000/svg">
<path d="M14 2C13.4696 2 12.9609 2.21071 12.5858 2.58579C12.2107 2.96086 12 3.46957 12 4C12 4.53043 12.2107 5.03914 12.5858 5.41421C12.9609 5.78929 13.4696 6 14 6C14.5304 6 15.0391 5.78929 15.4142 5.41421C15.7893 5.03914 16 4.53043 16 4C16 3.46957 15.7893 2.96086 15.4142 2.58579C15.0391 2.21071 14.5304 2 14 2ZM6 18C5.46957 18 4.96086 18.2107 4.58579 18.5858C4.21071 18.9609 4 19.4696 4 20C4 20.5304 4.21071 21.0391 4.58579 21.4142C4.96086 21.7893 5.46957 22 6 22C6.53043 22 7.03914 21.7893 7.41421 21.4142C7.78929 21.0391 8 20.5304 8 20C8 19.4696 7.78929 18.9609 7.41421 18.5858C7.03914 18.2107 6.53043 18 6 18Z" fill="white"/>
<path d="M7.83 8.10999L6.11 11.56L7.9 12.45L9.62 8.99999H11.5L9.68 13.38L7.65 15H3V17H7.65C8.1 17 8.55 16.84 8.9 16.56L11.05 14.84L12.76 17.83L9.3 21.29L10.71 22.7L14.17 19.24C14.81 18.6 14.94 17.62 14.49 16.83L13.12 14.44L15.64 8.98999H21V6.98999H9.62C8.86 6.98999 8.17 7.40999 7.83 8.09999V8.10999Z" fill="white"/>
</svg>
