<svg width="24" height="24" viewBox="0 0 24 24" fill="none" xmlns="http://www.w3.org/2000/svg">
<path d="M9.73923 8.80009L14.4054 3.94167C15.6848 2.66226 17.7887 2.68959 19.1034 4.00516C20.418 5.32072 20.4463 7.42368 19.1668 8.7031L17.4827 10.4869M5.35342 13.7705C4.90373 14.2202 3.97349 15.1196 3.97349 15.1196C2.6932 16.399 2.65793 18.68 3.97349 19.9956C5.28729 21.3094 7.39114 21.3385 8.67143 20.0582L13.2248 15.9246" stroke="white" stroke-width="2" stroke-linecap="round" stroke-linejoin="round"/>
<path d="M9.93541 13.4009C9.34948 12.8191 8.99505 12.0441 8.93815 11.2204C8.90467 10.7583 8.97079 10.2945 9.13203 9.86017C9.29328 9.42587 9.54589 9.03125 9.8728 8.703M13.1608 11.2257C14.4755 12.5404 14.5037 14.6442 13.2243 15.9245" stroke="white" stroke-width="2" stroke-linecap="round" stroke-linejoin="round"/>
</svg>
