<svg width="24" height="24" viewBox="0 0 24 24" fill="none" xmlns="http://www.w3.org/2000/svg">
<g clip-path="url(#clip0_262_137)">
<path d="M16.0823 3.24646H19.1076C19.8933 3.24646 20.5332 3.88633 20.5332 4.67206V22.5744C20.5332 23.3602 19.8933 24 19.1076 24H5.4256C4.63987 24 4 23.3602 4 22.5744V4.67206C4 3.88633 4.63987 3.24646 5.4256 3.24646H8.51676" stroke="white" stroke-width="0.8" stroke-miterlimit="22.93"/>
<path d="M16.0849 4.66736H19.1149V22.5603H5.62109V4.66736H8.51464" stroke="white" stroke-width="0.8" stroke-miterlimit="22.93"/>
<path d="M8.625 21.1064V17.2389" stroke="white" stroke-width="0.8" stroke-miterlimit="22.93"/>
<path d="M8.62548 17.239C8.60195 15.3805 9.44884 14.4348 11.1614 14.4066C11.7496 14.4254 12.3377 14.4254 12.9305 14.4066C15.0148 14.3595 16.1299 13.428 16.2663 11.6166V8.13489" stroke="white" stroke-width="0.8" stroke-miterlimit="22.93"/>
<path fill-rule="evenodd" clip-rule="evenodd" d="M16.2666 6.58691L15.1562 8.13955H17.5228L16.2666 6.58691Z" stroke="white" stroke-width="0.8" stroke-miterlimit="22.93"/>
<path d="M13.657 6.66223L11.9727 8.40307" stroke="white" stroke-width="0.8" stroke-miterlimit="22.93"/>
<path d="M11.9727 6.66223L13.657 8.40307" stroke="white" stroke-width="0.8" stroke-miterlimit="22.93"/>
<path d="M9.09453 12.6704L7.41016 14.4065" stroke="white" stroke-width="0.8" stroke-miterlimit="22.93"/>
<path d="M7.41016 12.6704L9.09453 14.4065" stroke="white" stroke-width="0.8" stroke-miterlimit="22.93"/>
<path d="M13.6266 18.4669L11.9375 20.203" stroke="white" stroke-width="0.8" stroke-miterlimit="22.93"/>
<path d="M11.9375 18.4669L13.6266 20.203" stroke="white" stroke-width="0.8" stroke-miterlimit="22.93"/>
<path d="M13.3152 11.4646C13.5509 10.8956 13.2807 10.2434 12.7118 10.0077C12.1428 9.77202 11.4905 10.0422 11.2548 10.6112C11.0192 11.1801 11.2894 11.8324 11.8583 12.0681C12.4273 12.3037 13.0796 12.0336 13.3152 11.4646Z" stroke="white" stroke-width="0.8" stroke-miterlimit="22.93"/>
<path d="M16.3573 17.8223C16.9731 17.8223 17.4723 17.3231 17.4723 16.7072C17.4723 16.0914 16.9731 15.5922 16.3573 15.5922C15.7414 15.5922 15.2422 16.0914 15.2422 16.7072C15.2422 17.3231 15.7414 17.8223 16.3573 17.8223Z" stroke="white" stroke-width="0.8" stroke-miterlimit="22.93"/>
<path fill-rule="evenodd" clip-rule="evenodd" d="M11.3488 2.39953C11.2923 2.2772 11.2641 2.13605 11.2641 1.9949C11.2641 1.44913 11.7064 1.00216 12.2569 1.00216C12.8073 1.00216 13.2496 1.44442 13.2496 1.9949C13.2496 2.14076 13.2167 2.2772 13.1649 2.39953C13.0097 2.74299 12.6615 2.98765 12.2616 2.98765C11.8616 2.98765 11.5135 2.7477 11.3582 2.39953H11.3488ZM14.7834 2.39953C14.6188 2.39953 14.2941 2.19251 14.2565 1.89139C14.2518 1.83023 14.1624 0 12.2569 0C11.1935 0 10.3702 0.771613 10.2667 1.82082C10.2667 1.84434 10.2667 1.86787 10.262 1.89139C10.229 2.15017 10.0832 2.2819 9.80558 2.38071C9.71619 2.40894 9.66914 2.39953 9.56092 2.40423H9.12336C8.78931 2.40423 8.51172 2.67712 8.51172 3.01588V4.70025C8.51172 5.0343 8.78461 5.3119 9.12336 5.3119H15.4704C15.8044 5.3119 16.082 5.03901 16.082 4.70025V3.01588C16.082 2.68183 15.8091 2.40423 15.4704 2.40423H14.9575C14.8963 2.40423 14.9952 2.40423 14.7834 2.40423V2.39953Z" fill="white"/>
</g>
<defs>
<clipPath id="clip0_262_137">
<rect width="24" height="24" fill="white"/>
</clipPath>
</defs>
</svg>
