<svg width="24" height="24" viewBox="0 0 24 24" fill="none" xmlns="http://www.w3.org/2000/svg">
<path d="M5.00005 14.1874C5.00005 13.5165 5.07838 12.8557 5.23504 12.2049C5.39171 11.5549 5.63546 10.9332 5.96629 10.3398C6.01879 10.2482 6.07087 10.1536 6.12254 10.0561C6.17504 9.95859 6.23712 9.86776 6.30879 9.78359C6.37113 9.70219 6.44729 9.63238 6.53379 9.57734C6.62674 9.52723 6.73069 9.501 6.83629 9.501C6.94189 9.501 7.04583 9.52723 7.13879 9.57734C7.23292 9.62585 7.31105 9.70051 7.36379 9.79234L8.66253 11.9124C8.7217 12.0099 8.79962 12.0849 8.89628 12.1374C8.99885 12.1919 9.11267 12.2218 9.22878 12.2249C9.32847 12.2293 9.42773 12.2093 9.51792 12.1666C9.60811 12.1239 9.68651 12.0598 9.74628 11.9799C9.83176 11.8673 9.89105 11.737 9.91981 11.5986C9.94857 11.4602 9.94608 11.3172 9.91253 11.1799C9.89131 11.0988 9.862 11.0201 9.82503 10.9449C9.5677 10.3978 9.34884 9.83356 9.17003 9.25609C8.99746 8.66925 8.91196 8.06025 8.91628 7.44858C8.91628 6.62857 9.05295 5.9094 9.32628 5.29106C9.59961 4.67189 9.98045 4.14106 10.4688 3.69855C10.9563 3.25688 11.5259 2.89896 12.1775 2.6248C12.8497 2.34429 13.5505 2.13807 14.2675 2.00979C14.357 1.99359 14.449 1.99753 14.5368 2.02131C14.6246 2.0451 14.7059 2.08813 14.775 2.14729C14.925 2.27646 15 2.43563 15 2.6248C15 3.60147 15.1658 4.53231 15.4975 5.41732C15.8339 6.30991 16.2979 7.14905 16.875 7.90858L17.9588 9.32359C18.3238 9.79859 18.6592 10.2936 18.965 10.8086C19.2708 11.3228 19.5183 11.8565 19.7075 12.4099C19.8958 12.964 19.9933 13.5565 20 14.1874C20 14.884 19.9154 15.5611 19.7463 16.2186C19.5798 16.8664 19.3303 17.4899 19.0038 18.0737C18.6788 18.6537 18.2946 19.1812 17.8513 19.6562C17.4088 20.1312 16.9075 20.5445 16.3475 20.8962C15.7875 21.2478 15.1854 21.5183 14.5413 21.7074C13.8971 21.8966 13.2167 21.9941 12.5 21.9999C11.8096 22.003 11.1222 21.9075 10.4588 21.7162C9.82483 21.5322 9.2201 21.2595 8.66253 20.9062C8.10984 20.5553 7.60157 20.139 7.14879 19.6662C6.69289 19.1911 6.30503 18.6552 5.99629 18.0737C5.68223 17.4853 5.43646 16.8629 5.26379 16.2186C5.0864 15.5562 4.9977 14.8731 5.00005 14.1874Z" fill="white"/>
</svg>
