<svg width="24" height="24" viewBox="0 0 24 24" fill="none" xmlns="http://www.w3.org/2000/svg">
<path d="M13.1322 2.37906C13.2699 2.20543 13.4614 2.08246 13.6766 2.02948C13.8918 1.9765 14.1185 1.99651 14.3211 2.08636C14.5237 2.17621 14.6907 2.33081 14.7959 2.52587C14.901 2.72094 14.9384 2.94542 14.9022 3.16406L13.8472 9.50006H17.6662C17.8542 9.50002 18.0384 9.55297 18.1976 9.65283C18.3569 9.7527 18.4848 9.89543 18.5666 10.0647C18.6485 10.2339 18.681 10.4228 18.6604 10.6096C18.6398 10.7965 18.5669 10.9737 18.4502 11.1211L10.5332 21.1211C10.3955 21.2947 10.204 21.4177 9.98878 21.4706C9.77359 21.5236 9.54689 21.5036 9.3443 21.4138C9.14171 21.3239 8.97471 21.1693 8.86953 20.9742C8.76435 20.7792 8.72694 20.5547 8.76319 20.3361L9.81819 14.0001H5.99919C5.81129 13.9999 5.62724 13.9468 5.46813 13.8469C5.30901 13.7469 5.18127 13.6042 5.09955 13.435C5.01782 13.2658 4.98542 13.077 5.00605 12.8903C5.02668 12.7035 5.09951 12.5263 5.21619 12.3791L13.1322 2.37906Z" fill="white"/>
</svg>
